<svg width="16" height="16" xmlns="http://www.w3.org/2000/svg">
 <title/>

 <g>
  <title>background</title>
  <rect fill="none" id="canvas_background" height="402" width="582" y="-1" x="-1"/>
 </g>
 <g>
  <title>Layer 1</title>
  <path id="Oval 12 copy 2" d="m8,14c3.313721,0 6,-2.686279 6,-6c0,-3.313721 -2.686279,-6 -6,-6c-3.313721,0 -6,2.686279 -6,6c0,3.313721 2.686279,6 6,6zm0,2c-4.418274,0 -8,-3.581726 -8,-8c0,-4.418274 3.581726,-8 8,-8c4.418274,0 8,3.581726 8,8c0,4.418274 -3.581726,8 -8,8zm0,-4c-2.209167,0 -4,-1.790833 -4,-4c0,-2.209167 1.790833,-4 4,-4c2.209167,0 4,1.790833 4,4c0,2.209167 -1.790833,4 -4,4zm0,0"/>
 </g>
</svg>