<svg width="172" height="460.00000000000006" xmlns="http://www.w3.org/2000/svg">

 <g>
  <title>background</title>
  <rect fill="none" id="canvas_background" height="462" width="174" y="-1" x="-1"/>
 </g>
 <g>
  <title>Layer 1</title>
  <path id="svg_1" d="m85.777298,80.95932c20.600006,0.099998 37.299988,-16.599998 37.299988,-37.299995c0,-20.600004 -16.699982,-37.300005 -37.299988,-37.300005c-20.600006,0 -37.300003,16.700001 -37.300003,37.300005c0,20.599998 16.699997,37.299995 37.300003,37.299995z"/>
  <path id="svg_3" d="m123.177292,89.359322l-37.399994,0l-37.399994,0c-28.200012,0 -46.600006,24.800003 -46.600006,48.399986l0,113.599991c0,22.000015 31,22.000015 31,0l0,-104.999985l6,0l0,285.600006c0,30.399994 42,29.399994 43,0l0,-164.600006l7,0l1,0l0,164.700012c1.700012,31.199982 43,28.199982 43,-0.100006l0,-285.600006l5,0l0,104.999985c0,22.000015 32,22.000015 32,0l0,-113.599991c0,-23.499992 -18.5,-48.399986 -46.600006,-48.399986z"/>
 </g>
</svg>